<svg width="40" height="40" viewBox="0 0 40 40" fill="none" xmlns="http://www.w3.org/2000/svg">
<path fill-rule="evenodd" clip-rule="evenodd" d="M21 19V10.8333H19V19H10.8333V21H19V29.1667H21V21H29.1667V19H21Z" fill="white"/>
<path fill-rule="evenodd" clip-rule="evenodd" d="M20 0C8.95431 0 4.2136e-06 8.9543 0 20C-4.2136e-06 31.0457 8.9543 40 20 40C31.0457 40 40 31.0457 40 20C40 8.9543 31.0457 0 20 0ZM1.66667 20C1.66667 9.87999 9.88 1.66666 20 1.66666C30.12 1.66666 38.3333 9.87999 38.3333 20C38.3333 30.12 30.12 38.3333 20 38.3333C9.88 38.3333 1.66667 30.12 1.66667 20Z" fill="white"/>
</svg>
