<svg width="26" height="26" viewBox="0 0 26 26" fill="none" xmlns="http://www.w3.org/2000/svg">
<g clip-path="url(#clip0_54_499)">
<path d="M13.48 11.9C11.21 11.31 10.48 10.7 10.48 9.75C10.48 8.66 11.49 7.9 13.18 7.9C14.96 7.9 15.62 8.75 15.68 10H17.89C17.82 8.28 16.77 6.7 14.68 6.19V4H11.68V6.16C9.74 6.58 8.18 7.84 8.18 9.77C8.18 12.08 10.09 13.23 12.88 13.9C15.38 14.5 15.88 15.38 15.88 16.31C15.88 17 15.39 18.1 13.18 18.1C11.12 18.1 10.31 17.18 10.2 16H8C8.12 18.19 9.76 19.42 11.68 19.83V22H14.68V19.85C16.63 19.48 18.18 18.35 18.18 16.3C18.18 13.46 15.75 12.49 13.48 11.9Z" fill="black"/>
</g>
<rect x="0.5" y="0.5" width="25" height="25" rx="12.5" stroke="black"/>
<defs>
<clipPath id="clip0_54_499">
<rect x="1" y="1" width="24" height="24" rx="12" fill="white"/>
</clipPath>
</defs>
</svg>
