<svg width="28" height="28" viewBox="0 0 28 28" fill="none" xmlns="http://www.w3.org/2000/svg">
<path fill-rule="evenodd" clip-rule="evenodd" d="M3.44689 3.5C2.83182 3.5 2.33325 3.99864 2.33325 4.61364V8.51136C2.33325 8.81889 2.58255 9.06818 2.89007 9.06818C3.19759 9.06818 3.44689 8.81889 3.44689 8.51136V5.61364C3.44689 5.06135 3.89461 4.61364 4.44689 4.61364H24.7196C25.2719 4.61364 25.7196 5.06135 25.7196 5.61364V21.4318C25.7196 21.9841 25.2719 22.4318 24.7196 22.4318H17.3673C17.0598 22.4318 16.8105 22.6811 16.8105 22.9886C16.8105 23.2962 17.0598 23.5455 17.3673 23.5455H25.7196C26.3347 23.5455 26.8333 23.0468 26.8333 22.4318V4.61364C26.8333 3.99864 26.3347 3.5 25.7196 3.5H3.44689ZM13.451 22.989C13.4714 23.2959 13.7189 23.5455 14.0264 23.5455C14.334 23.5455 14.5846 23.2956 14.5708 22.9884C14.2879 16.666 9.2126 11.5908 2.8903 11.3079C2.58309 11.2941 2.33325 11.5448 2.33325 11.8523C2.33325 12.1598 2.58285 12.4073 2.88969 12.4277C8.05231 12.772 13.1067 17.8265 13.451 22.989ZM9.57189 23.5455C9.87941 23.5455 10.1308 23.2953 10.1091 22.9886C9.83656 19.1271 6.75158 16.0422 2.89015 15.7696C2.58339 15.7479 2.33325 15.9993 2.33325 16.3068C2.33325 16.6143 2.58349 16.8607 2.88833 16.9013C5.63955 17.2672 8.6115 20.2391 8.97745 22.9904C9.018 23.2952 9.26437 23.5455 9.57189 23.5455ZM2.33325 21.7614C2.33325 21.2091 2.78935 20.738 3.32508 20.8722C4.21959 21.0963 4.78245 21.6592 5.00649 22.5536C5.14068 23.0894 4.66963 23.5455 4.11734 23.5455H3.33325C2.78097 23.5455 2.33325 23.0977 2.33325 22.5455V21.7614Z" fill="black"/>
</svg>
