<svg width="25" height="21" viewBox="0 0 25 21" fill="none" xmlns="http://www.w3.org/2000/svg">
<path fill-rule="evenodd" clip-rule="evenodd" d="M1.44689 0.5C0.831819 0.5 0.333252 0.998635 0.333252 1.61364V5.51136C0.333252 5.81889 0.582548 6.06818 0.89007 6.06818C1.19759 6.06818 1.44689 5.81889 1.44689 5.51136V2.61364C1.44689 2.06135 1.89461 1.61364 2.44689 1.61364H22.7196C23.2719 1.61364 23.7196 2.06135 23.7196 2.61364V18.4318C23.7196 18.9841 23.2719 19.4318 22.7196 19.4318H15.3673C15.0598 19.4318 14.8105 19.6811 14.8105 19.9886C14.8105 20.2962 15.0598 20.5455 15.3673 20.5455H23.7196C24.3347 20.5455 24.8333 20.0468 24.8333 19.4318V1.61364C24.8333 0.998635 24.3347 0.5 23.7196 0.5H1.44689ZM11.451 19.989C11.4714 20.2959 11.7189 20.5455 12.0264 20.5455C12.334 20.5455 12.5846 20.2956 12.5708 19.9884C12.2879 13.666 7.2126 8.59085 0.890305 8.3079C0.58309 8.29415 0.333252 8.54475 0.333252 8.85227C0.333252 9.1598 0.58285 9.40728 0.88969 9.42774C6.05231 9.77201 11.1067 14.8265 11.451 19.989ZM7.57189 20.5455C7.87941 20.5455 8.13077 20.2953 8.10912 19.9886C7.83656 16.1271 4.75158 13.0422 0.890149 12.7696C0.58339 12.7479 0.333252 12.9993 0.333252 13.3068C0.333252 13.6143 0.583493 13.8607 0.88833 13.9013C3.63955 14.2672 6.6115 17.2391 6.97745 19.9904C7.018 20.2952 7.26437 20.5455 7.57189 20.5455ZM0.333252 18.7614C0.333252 18.2091 0.789349 17.738 1.32508 17.8722C2.21959 18.0963 2.78245 18.6592 3.00649 19.5536C3.14068 20.0894 2.66963 20.5455 2.11734 20.5455H1.33325C0.780967 20.5455 0.333252 20.0977 0.333252 19.5455V18.7614Z" fill="white"/>
</svg>
