<svg width="20" height="20" viewBox="0 0 20 20" fill="none" xmlns="http://www.w3.org/2000/svg">
<path d="M10 0C4.48 0 0 4.48 0 10C0 15.52 4.48 20 10 20C15.52 20 20 15.52 20 10C20 4.48 15.52 0 10 0ZM1 10C1 5.02944 5.02944 1 10 1C14.9706 1 19 5.02944 19 10C19 14.9706 14.9706 19 10 19C5.02944 19 1 14.9706 1 10ZM5 15L12.19 12.19L15 5L7.81 7.81L5 15ZM10 8.9C9.39 8.9 8.9 9.39 8.9 10C8.9 10.61 9.39 11.1 10 11.1C10.61 11.1 11.1 10.61 11.1 10C11.1 9.39 10.61 8.9 10 8.9Z" fill="white"/>
<path d="M10 0C4.48 0 0 4.48 0 10C0 15.52 4.48 20 10 20C15.52 20 20 15.52 20 10C20 4.48 15.52 0 10 0ZM1 10C1 5.02944 5.02944 1 10 1C14.9706 1 19 5.02944 19 10C19 14.9706 14.9706 19 10 19C5.02944 19 1 14.9706 1 10ZM5 15L12.19 12.19L15 5L7.81 7.81L5 15ZM10 8.9C9.39 8.9 8.9 9.39 8.9 10C8.9 10.61 9.39 11.1 10 11.1C10.61 11.1 11.1 10.61 11.1 10C11.1 9.39 10.61 8.9 10 8.9Z" stroke="white"/>
</svg>
