<svg width="24" height="24" viewBox="0 0 24 24" fill="none" xmlns="http://www.w3.org/2000/svg">
<g clip-path="url(#clip0_67_30)">
<path fill-rule="evenodd" clip-rule="evenodd" d="M12.7031 7.31217V6.02808C12.7031 5.75138 12.8521 5.50416 13.0739 5.41214C14.13 4.97545 14.8125 3.95508 14.8125 2.8125C14.8125 1.26136 13.5511 0 12 0C10.4489 0 9.1875 1.26136 9.1875 2.8125H10.5938C10.5938 2.03728 11.2248 1.40625 12 1.40625C12.7752 1.40625 13.4062 2.03728 13.4062 2.8125C13.4062 3.38381 13.065 3.89466 12.537 4.113C11.7837 4.42406 11.2969 5.17594 11.2969 6.02808V7.31227L0 13.3326L1.0897 13.9671C1.18842 14.0245 3.4455 15.2841 7.07812 15.4386V24L8 23L9 24L10 23L11 24L12 23L13 24L14 23L15 24L16 23L16.9219 24V15.4688C17.063 15.4338 20.7597 15.5791 23.0765 13.932L24 13.2728L12.7031 7.31217ZM14.8125 12.6562C15.728 12.6562 16.5011 13.2458 16.7924 14.0625C16.9352 14.0466 18.9071 14.1866 21.0239 13.3436L12 8.53158L3.07294 13.2928C4.00659 13.6188 5.44102 13.9677 7.21608 14.0355C7.51448 13.2327 8.28197 12.6562 9.1875 12.6562H14.8125Z" fill="white"/>
</g>
<defs>
<clipPath id="clip0_67_30">
<rect width="24" height="24" fill="white"/>
</clipPath>
</defs>
</svg>
