<svg width="24" height="24" viewBox="0 0 24 24" fill="none" xmlns="http://www.w3.org/2000/svg">
<path d="M12.7962 14.3997C13.0171 14.3997 13.1962 14.2206 13.1962 13.9997V9.59978H13.9962C14.8798 9.59978 15.5962 8.88344 15.5962 7.99979C15.5962 7.11615 14.8798 6.39981 13.9962 6.39981C13.1125 6.39981 12.3962 7.11615 12.3962 7.99979V8.79979H11.5962V7.99979C11.5962 7.11615 10.8799 6.39981 9.99623 6.39981C9.11258 6.39981 8.39624 7.11615 8.39624 7.99979C8.39624 8.88344 9.11258 9.59978 9.99623 9.59978H10.7962V13.9997C10.7962 14.2206 10.9753 14.3997 11.1962 14.3997C11.4171 14.3997 11.5962 14.2206 11.5962 13.9997V9.59978H12.3962V13.9997C12.3962 14.2206 12.5753 14.3997 12.7962 14.3997Z" fill="white"/>
<path d="M12.3069 1.60748C8.77641 1.43788 5.77684 4.16241 5.60725 7.69292C5.5101 9.7145 6.37494 11.6629 7.93937 12.947C8.22132 13.1678 8.38907 13.5037 8.39617 13.8618V14.7997C8.39827 15.3064 8.71841 15.7572 9.19616 15.9261V16.3997C9.19721 16.6959 9.30841 16.9811 9.50816 17.1997C9.09216 17.6519 9.09216 18.3475 9.50816 18.7997C9.06346 19.2872 9.09816 20.0429 9.58565 20.4876C9.8071 20.6896 10.0964 20.801 10.3961 20.7997C10.6114 20.8053 10.7906 20.6353 10.7962 20.42C10.7984 20.336 10.7734 20.2535 10.7249 20.1849C10.7123 20.1604 10.6973 20.1372 10.6801 20.1157C10.6472 20.0856 10.6097 20.061 10.5689 20.0429C10.5573 20.0369 10.5457 20.0321 10.5337 20.0273C10.4932 20.0125 10.4508 20.004 10.4077 20.0021C10.4037 20.0021 10.4001 19.9997 10.3961 19.9997C10.1752 19.9997 9.99615 19.8206 9.99615 19.5997C9.99615 19.3788 10.1752 19.1997 10.3961 19.1997H11.9961C12.217 19.1997 12.3961 19.0206 12.3961 18.7997C12.3961 18.5788 12.217 18.3997 11.9961 18.3997H10.3961C10.1752 18.3997 9.99615 18.2206 9.99615 17.9997C9.99615 17.7788 10.1752 17.5997 10.3961 17.5997H11.9961C12.217 17.5997 12.3961 17.4206 12.3961 17.1997C12.3961 16.9788 12.217 16.7997 11.9961 16.7997H10.3961C10.1752 16.7997 9.99615 16.6206 9.99615 16.3997V15.9997H11.9961C12.217 15.9997 12.3961 15.8206 12.3961 15.5997C12.3961 15.3788 12.217 15.1997 11.9961 15.1997H9.59615C9.37526 15.1997 9.19616 15.0206 9.19616 14.7997V13.8618C9.18961 13.2637 8.91416 12.7003 8.44617 12.3278C6.05679 10.3641 5.71174 6.83523 7.67542 4.44585C8.79871 3.07907 10.5018 2.32348 12.2689 2.40787C15.2242 2.58367 17.5457 5.0057 17.5961 7.96582C17.6104 9.6684 16.8449 11.2839 15.5181 12.351C15.0536 12.7336 14.788 13.3064 14.7961 13.9082V14.7997C14.7961 15.0206 14.617 15.1997 14.3961 15.1997H13.1961C12.9752 15.1997 12.7961 15.3788 12.7961 15.5997C12.7961 15.8206 12.9752 15.9997 13.1961 15.9997H13.9961V16.3997C13.9961 16.6206 13.817 16.7997 13.5961 16.7997H13.1961C12.9752 16.7997 12.7961 16.9788 12.7961 17.1997C12.7961 17.4206 12.9752 17.5997 13.1961 17.5997H13.5961C13.817 17.5997 13.9961 17.7788 13.9961 17.9997C13.9961 18.2206 13.817 18.3997 13.5961 18.3997H13.1961C12.9752 18.3997 12.7961 18.5788 12.7961 18.7997C12.7961 19.0206 12.9752 19.1997 13.1961 19.1997H13.5961C13.817 19.1997 13.9961 19.3788 13.9961 19.5997C13.9961 19.8206 13.817 19.9997 13.5961 19.9997H11.5961C11.3752 19.9997 11.1961 20.1788 11.1961 20.3997C11.1961 20.6206 11.3752 20.7997 11.5961 20.7997H13.1277C12.9069 21.4245 12.2213 21.752 11.5964 21.5312C11.4051 21.4636 11.2341 21.3485 11.0993 21.1969C10.9524 21.0319 10.6995 21.0172 10.5345 21.1641C10.3695 21.311 10.3548 21.5639 10.5017 21.7289C11.2333 22.5532 12.4946 22.6285 13.3189 21.897C13.6594 21.5948 13.8864 21.1854 13.9621 20.7365C14.5886 20.5407 14.9376 19.8741 14.7419 19.2477C14.6899 19.0812 14.6019 18.9283 14.4841 18.7997C14.9001 18.3475 14.9001 17.6519 14.4841 17.1997C14.6839 16.9811 14.795 16.6959 14.7961 16.3997V15.9261C15.2738 15.7572 15.594 15.3064 15.5961 14.7997V13.9082C15.5907 13.5488 15.7464 13.2059 16.0205 12.9734C17.5377 11.7536 18.413 9.90645 18.3961 7.95982C18.3383 4.57645 15.6848 1.80833 12.3069 1.60748Z" fill="white"/>
</svg>
