<svg width="24" height="24" viewBox="0 0 24 24" fill="none" xmlns="http://www.w3.org/2000/svg">
<g clip-path="url(#clip0_84_773)">
<path d="M21.75 7.5C22.0547 7.5 22.3438 7.55859 22.6172 7.67578C22.8906 7.79297 23.1289 7.95312 23.332 8.15625C23.5352 8.35938 23.6992 8.59766 23.8242 8.87109C23.9492 9.14453 24.0078 9.4375 24 9.75C24 10 23.9609 10.2383 23.8828 10.4648L20.8828 19.4648C20.8047 19.6914 20.6953 19.8984 20.5547 20.0859C20.4141 20.2734 20.25 20.4375 20.0625 20.5781C19.875 20.7188 19.6719 20.8203 19.4531 20.8828C19.2344 20.9453 19 20.9844 18.75 21H12.75C11.3516 21 10.0039 20.7305 8.70703 20.1914C8.14453 19.9648 7.58203 19.793 7.01953 19.6758C6.45703 19.5586 5.86719 19.5 5.25 19.5H0V9H4.88672C5.39453 9 5.87109 8.90625 6.31641 8.71875C6.76172 8.53125 7.16797 8.25781 7.53516 7.89844L14.8242 0.621094C15.0195 0.425781 15.2148 0.273438 15.4102 0.164062C15.6055 0.0546875 15.8438 0 16.125 0C16.3828 0 16.625 0.046875 16.8516 0.140625C17.0781 0.234375 17.2773 0.371094 17.4492 0.550781C17.6211 0.730469 17.7539 0.929688 17.8477 1.14844C17.9414 1.36719 17.9922 1.60938 18 1.875C18 2.50781 17.9297 3.10938 17.7891 3.67969C17.6484 4.25 17.4414 4.82031 17.168 5.39062C17.0117 5.72656 16.8789 6.06641 16.7695 6.41016C16.6602 6.75391 16.5859 7.11719 16.5469 7.5H21.75ZM18.75 19.5C18.9062 19.5 19.0508 19.4531 19.1836 19.3594C19.3164 19.2656 19.4102 19.1406 19.4648 18.9844C19.5039 18.875 19.5742 18.6641 19.6758 18.3516C19.7773 18.0391 19.9062 17.6641 20.0625 17.2266C20.2188 16.7891 20.3828 16.3047 20.5547 15.7734C20.7266 15.2422 20.9062 14.707 21.0938 14.168C21.2812 13.6289 21.4531 13.1055 21.6094 12.5977C21.7656 12.0898 21.918 11.6289 22.0664 11.2148C22.2148 10.8008 22.3203 10.4648 22.3828 10.207C22.4453 9.94922 22.4844 9.79688 22.5 9.75C22.5 9.54688 22.4258 9.37109 22.2773 9.22266C22.1289 9.07422 21.9531 9 21.75 9H15C15 8.58594 15.0078 8.20312 15.0234 7.85156C15.0391 7.5 15.0781 7.15234 15.1406 6.80859C15.2031 6.46484 15.2891 6.12891 15.3984 5.80078C15.5078 5.47266 15.6523 5.11719 15.832 4.73438C16.0508 4.28125 16.2148 3.82031 16.3242 3.35156C16.4336 2.88281 16.4922 2.39062 16.5 1.875C16.5 1.76562 16.4648 1.67578 16.3945 1.60547C16.3242 1.53516 16.2344 1.5 16.125 1.5C16.0781 1.5 16.0391 1.51562 16.0078 1.54688C15.9766 1.57812 15.9414 1.61328 15.9023 1.65234L8.60156 8.96484C8.35156 9.21484 8.08594 9.43359 7.80469 9.62109C7.52344 9.80859 7.21875 9.96875 6.89062 10.1016C6.3732 10.3215 5.82632 10.4503 5.25 10.4882C5.13018 10.4961 5.00909 10.5 4.88672 10.5H4H1.5V18H4H5.25C6.64062 18 7.98828 18.2695 9.29297 18.8086C10.418 19.2695 11.5703 19.5 12.75 19.5H18.75Z" fill="black"/>
<path d="M4.88672 10.5H4V18H5.25V10.4882C5.13018 10.4961 5.00909 10.5 4.88672 10.5Z" fill="black"/>
</g>
<defs>
<clipPath id="clip0_84_773">
<rect width="24" height="24" fill="white"/>
</clipPath>
</defs>
</svg>
