<svg width="24" height="24" viewBox="0 0 24 24" fill="none" xmlns="http://www.w3.org/2000/svg">
<g clip-path="url(#clip0_67_1)">
<path d="M16.322 19.6625L11.9295 20.1454L7.58154 19.6625C9.6382 19.6625 10.3597 18.1901 10.5002 16.2421C10.519 15.9843 10.5272 15.7182 10.5272 15.4463V15.2623C10.9831 15.3603 11.4732 15.413 12.0001 15.413C12.5081 15.413 12.9823 15.3642 13.4246 15.2729V15.4463C13.4246 15.7216 13.4323 15.991 13.4507 16.2518C13.584 18.195 14.2687 19.6625 16.322 19.6625Z" fill="white"/>
<path d="M24.0001 7.0347C24.0001 10.6159 21.0863 13.5297 17.5051 13.5297H16.5635C16.986 13.0926 17.3487 12.6006 17.6601 12.0786C20.1273 12.0037 22.1545 10.1499 22.4997 7.75905H19.2117C19.3136 7.23317 19.3855 6.74158 19.4362 6.31036H23.2757C23.6756 6.31036 24.0001 6.63486 24.0001 7.0347Z" fill="#FAD207"/>
<path d="M18.8611 11.896C18.7433 12.1302 18.6192 12.3562 18.4893 12.5735C18.2889 12.9096 18.0735 13.2264 17.8451 13.5205C17.7326 13.5267 17.6191 13.5296 17.5051 13.5296H16.5635L16.6705 12.836L17.6601 12.0785C17.6601 12.0785 18.4772 12.0032 18.8611 11.896Z" fill="white"/>
<path d="M20.4083 6.31036C20.4039 6.34754 20.3996 6.38521 20.3952 6.42335C20.3421 6.87341 20.275 7.32203 20.1943 7.75905H19.2116L18.8547 7.0347L19.4361 6.31036H20.4083Z" fill="white"/>
<path d="M24 7.0347C24 10.5019 21.2687 13.3433 17.845 13.5205C18.0734 13.2264 18.2888 12.9096 18.4892 12.5735C18.6191 12.3562 18.7432 12.1302 18.861 11.896C20.7612 11.3653 22.2123 9.7481 22.4996 7.75905H20.1943C20.2749 7.32203 20.342 6.87341 20.3951 6.42335C20.3995 6.38521 20.4038 6.34754 20.4082 6.31036H23.2756C23.6755 6.31036 24 6.63486 24 7.0347Z" fill="#DADADA"/>
<path d="M7.43662 13.5297H6.49497C2.9138 13.5297 0 10.6159 0 7.0347C0 6.63486 0.324507 6.31036 0.724346 6.31036H4.56386C4.61457 6.74158 4.68652 7.23317 4.78841 7.75905H1.50036C1.84563 10.1499 3.87284 12.0037 6.33996 12.0786C6.65143 12.6006 7.01408 13.0926 7.43662 13.5297Z" fill="white"/>
<path d="M17.6773 19.2716H6.32368C5.9378 19.2716 5.625 19.5228 5.625 19.8326V20.9266C5.625 21.2364 5.9378 21.4876 6.32368 21.4876H17.6773C18.0631 21.4876 18.3759 21.2364 18.3759 20.9266V19.8326C18.3759 19.5228 18.0631 19.2716 17.6773 19.2716Z" fill="white"/>
<path d="M19.5573 4.59608C19.5573 4.59608 19.5573 4.96308 19.51 5.56187C19.4926 5.78207 19.4685 6.03415 19.4361 6.31036C19.3854 6.74159 19.3135 7.23318 19.2116 7.75905C18.9469 9.11648 18.4814 10.7028 17.66 12.0786C17.3485 12.6006 16.9859 13.0927 16.5634 13.5297C15.755 14.3661 14.7283 15.0035 13.4245 15.2729C12.9822 15.3642 12.508 15.413 12 15.413C11.4731 15.413 10.983 15.3603 10.5271 15.2623C9.24649 14.988 8.2353 14.3559 7.43659 13.5297C7.01406 13.0927 6.6514 12.6006 6.33993 12.0786C5.51852 10.7028 5.05301 9.11648 4.78838 7.75905C4.68649 7.23318 4.61454 6.74159 4.56383 6.31036C4.53148 6.03415 4.50734 5.78207 4.48995 5.56187C4.44263 4.96308 4.44263 4.59608 4.44263 4.59608H19.5573Z" fill="#DADADA"/>
<path d="M19.5573 4.59609L11.6 4.53331L5.40842 4.59609H4.44263C4.44263 4.59609 4.44263 4.96309 4.48995 5.56188C4.50734 5.78208 4.53148 6.03416 4.56383 6.31037C4.61454 6.7416 4.68649 7.23319 4.78838 7.75906C5.05301 9.11649 5.51852 10.7028 6.33993 12.0786C6.6514 12.6006 7.01406 13.0927 7.43659 13.5297C8.2353 14.3559 9.24649 14.988 10.5271 15.2623C10.983 15.3603 11.4731 15.413 12 15.413C12.1642 15.413 12.3245 15.4081 12.4814 15.398C12.1352 15.3758 11.8058 15.3294 11.4929 15.2623C10.2123 14.988 9.2011 14.3559 8.40238 13.5297C7.97985 13.0927 7.61719 12.6006 7.30572 12.0786C6.48432 10.7028 6.0188 9.11649 5.75418 7.75906C5.65228 7.23319 5.58033 6.7416 5.52963 6.31037C5.52929 6.30762 5.529 6.30487 5.52866 6.30212C5.48264 5.90773 5.79189 5.56188 6.18893 5.56188H19.51C19.5573 4.96309 19.5573 4.59609 19.5573 4.59609Z" fill="white"/>
<path d="M4.4184 2.1333H19.5814C20.2614 2.1333 20.8128 2.68462 20.8128 3.36469C20.8128 4.04475 20.2614 4.59608 19.5814 4.59608H4.4184C3.73834 4.59608 3.18701 4.04475 3.18701 3.36469C3.18701 2.68462 3.73834 2.1333 4.4184 2.1333Z" fill="white"/>
</g>
<defs>
<clipPath id="clip0_67_1">
<rect width="24" height="24" fill="white"/>
</clipPath>
</defs>
</svg>
