<svg width="24" height="24" viewBox="0 0 24 24" fill="none" xmlns="http://www.w3.org/2000/svg">
<g clip-path="url(#clip0_59_0)">
<path d="M18.2185 1.49326C12.4044 2.51318 10.1422 10.5257 10.1422 10.5257C10.1422 10.5257 8.28438 9.05139 9.43869 5.87995C6.38381 6.42453 3.65443 8.61496 2.51667 11.7409C0.816638 16.4117 3.22492 21.5763 7.89572 23.2763C12.5665 24.9764 17.7311 22.5681 19.4311 17.8973C21.9321 11.0258 16.1022 7.3076 18.2185 1.49326V1.49326ZM9.69924 20.6326C7.84557 20.4378 6.50074 18.7771 6.69552 16.9233C6.89036 15.0697 8.55106 13.7247 10.4048 13.9196C14.8802 14.39 16.2342 12.2698 16.2342 12.2698C16.2342 12.2698 15.2934 21.2206 9.69924 20.6326Z" fill="white"/>
</g>
<defs>
<clipPath id="clip0_59_0">
<rect width="24" height="24" fill="white"/>
</clipPath>
</defs>
</svg>
