<svg width="90" height="27" viewBox="0 0 90 27" fill="none" xmlns="http://www.w3.org/2000/svg">
<path d="M28.35 6.69147C28.026 5.47647 27.0675 4.51798 25.848 4.18948C23.643 3.59998 14.796 3.59998 14.796 3.59998C14.796 3.59998 5.95346 3.59998 3.74397 4.18948C2.52897 4.51348 1.57047 5.47197 1.24197 6.69147C0.652466 8.89647 0.652466 13.5 0.652466 13.5C0.652466 13.5 0.652466 18.1035 1.24197 20.3085C1.56597 21.5235 2.52447 22.482 3.74397 22.8105C5.95346 23.4 14.796 23.4 14.796 23.4C14.796 23.4 23.643 23.4 25.848 22.8105C27.063 22.4865 28.0215 21.528 28.35 20.3085C28.9395 18.1035 28.9395 13.5 28.9395 13.5C28.9395 13.5 28.9395 8.89647 28.35 6.69147Z" fill="#FF0000"/>
<path d="M11.97 17.7435L19.3185 13.5L11.97 9.25647V17.7435Z" fill="white"/>
<path d="M41.7105 21.6134C41.1525 21.2354 40.752 20.6504 40.518 19.8539C40.284 19.0574 40.1625 17.9999 40.1625 16.6769V14.8769C40.1625 13.5404 40.2975 12.4694 40.5675 11.6594C40.8375 10.8494 41.2605 10.2599 41.832 9.89089C42.4035 9.52189 43.155 9.33289 44.0865 9.33289C45.0045 9.33289 45.738 9.52189 46.2915 9.89989C46.845 10.2779 47.25 10.8674 47.5065 11.6684C47.763 12.4694 47.889 13.5404 47.889 14.8724V16.6724C47.889 17.9954 47.763 19.0574 47.5155 19.8584C47.268 20.6594 46.863 21.2489 46.3005 21.6179C45.7425 21.9869 44.982 22.1759 44.0235 22.1759C43.0425 22.1804 42.2685 21.9914 41.7105 21.6134ZM44.847 19.6694C45 19.2644 45.081 18.6029 45.081 17.6894V13.8239C45.081 12.9329 45.0045 12.2849 44.847 11.8709C44.694 11.4614 44.4195 11.2544 44.028 11.2544C43.65 11.2544 43.3845 11.4614 43.227 11.8709C43.074 12.2804 42.993 12.9329 42.993 13.8239V17.6894C42.993 18.6074 43.065 19.2689 43.2135 19.6694C43.362 20.0744 43.632 20.2769 44.0235 20.2769C44.4195 20.2769 44.6895 20.0744 44.847 19.6694Z" fill="white"/>
<path d="M84.6719 16.7084V17.3339C84.6719 18.1304 84.6944 18.7244 84.7439 19.1249C84.7889 19.5209 84.8879 19.8134 85.0364 19.9934C85.1849 20.1734 85.4144 20.2679 85.7249 20.2679C86.1434 20.2679 86.4314 20.1059 86.5844 19.7819C86.7374 19.4579 86.8229 18.9179 86.8364 18.1619L89.2439 18.3014C89.2574 18.4094 89.2619 18.5579 89.2619 18.7469C89.2619 19.8944 88.9469 20.7494 88.3214 21.3164C87.6959 21.8834 86.8094 22.1669 85.6619 22.1669C84.2849 22.1669 83.3219 21.7349 82.7684 20.8709C82.2149 20.0069 81.9404 18.6749 81.9404 16.8659V14.7014C81.9404 12.8384 82.2284 11.4839 82.7999 10.6244C83.3714 9.76942 84.3524 9.34192 85.7429 9.34192C86.7014 9.34192 87.4349 9.51742 87.9479 9.86842C88.4609 10.2194 88.8209 10.7639 89.0324 11.5064C89.2394 12.2489 89.3474 13.2749 89.3474 14.5799V16.7039H84.6719V16.7084ZM85.0274 11.4884C84.8879 11.6639 84.7934 11.9519 84.7439 12.3479C84.6944 12.7439 84.6719 13.3514 84.6719 14.1569V15.0479H86.7149V14.1569C86.7149 13.3604 86.6879 12.7574 86.6339 12.3479C86.5799 11.9384 86.4809 11.6459 86.3414 11.4794C86.2019 11.3129 85.9814 11.2274 85.6844 11.2274C85.3874 11.2229 85.1669 11.3129 85.0274 11.4884Z" fill="white"/>
<path d="M34.9154 16.4744L31.7384 5.00389H34.5104L35.6219 10.2014C35.9054 11.4839 36.1124 12.5729 36.2474 13.4774H36.3284C36.4229 12.8294 36.6299 11.7449 36.9539 10.2194L38.1059 4.99939H40.8779L37.6649 16.4744V21.9779H34.9154V16.4744Z" fill="white"/>
<path d="M56.9024 9.57593V21.9734H54.7199L54.4769 20.4569H54.4184C53.8244 21.6044 52.9334 22.1759 51.7499 22.1759C50.9264 22.1759 50.3189 21.9059 49.9274 21.3659C49.5359 20.8259 49.3424 19.9844 49.3424 18.8369V9.57593H52.1324V18.6794C52.1324 19.2329 52.1909 19.6289 52.3124 19.8629C52.4339 20.0969 52.6364 20.2184 52.9199 20.2184C53.1629 20.2184 53.3969 20.1464 53.6174 19.9979C53.8379 19.8494 54.0044 19.6604 54.1124 19.4309V9.57593H56.9024Z" fill="white"/>
<path d="M71.2214 9.57593V21.9734H69.0389L68.7959 20.4569H68.7374C68.1434 21.6044 67.2524 22.1759 66.0689 22.1759C65.2454 22.1759 64.6379 21.9059 64.2464 21.3659C63.8549 20.8259 63.6614 19.9844 63.6614 18.8369V9.57593H66.4514V18.6794C66.4514 19.2329 66.5099 19.6289 66.6314 19.8629C66.7529 20.0969 66.9554 20.2184 67.2389 20.2184C67.4819 20.2184 67.7159 20.1464 67.9364 19.9979C68.1569 19.8494 68.3234 19.6604 68.4314 19.4309V9.57593H71.2214Z" fill="white"/>
<path d="M64.4894 7.24941H61.7174V21.9734H58.9859V7.24941H56.2139V5.00391H64.4849V7.24941H64.4894Z" fill="white"/>
<path d="M80.4599 11.5604C80.2889 10.7774 80.0189 10.2104 79.6409 9.85942C79.2629 9.50842 78.7454 9.33292 78.0839 9.33292C77.5709 9.33292 77.0939 9.47692 76.6484 9.76942C76.2029 10.0574 75.8609 10.4399 75.6179 10.9124H75.5954V4.37842H72.9044V21.9779H75.2084L75.4919 20.8034H75.5504C75.7664 21.2219 76.0904 21.5504 76.5224 21.7934C76.9544 22.0364 77.4314 22.1579 77.9579 22.1579C78.9029 22.1579 79.5959 21.7214 80.0414 20.8529C80.4869 19.9844 80.7074 18.6254 80.7074 16.7759V14.8139C80.7119 13.4279 80.6264 12.3434 80.4599 11.5604ZM77.8994 16.6184C77.8994 17.5229 77.8634 18.2294 77.7869 18.7424C77.7149 19.2554 77.5889 19.6199 77.4134 19.8359C77.2379 20.0519 77.0039 20.1599 76.7069 20.1599C76.4774 20.1599 76.2659 20.1059 76.0679 19.9979C75.8744 19.8899 75.7124 19.7279 75.5909 19.5119V12.4694C75.6854 12.1319 75.8474 11.8574 76.0769 11.6414C76.3064 11.4254 76.5539 11.3174 76.8239 11.3174C77.1074 11.3174 77.3279 11.4299 77.4809 11.6504C77.6339 11.8709 77.7419 12.2489 77.8049 12.7709C77.8634 13.2974 77.8949 14.0444 77.8949 15.0164V16.6184H77.8994Z" fill="white"/>
</svg>
