<svg width="28" height="28" viewBox="0 0 28 28" fill="none" xmlns="http://www.w3.org/2000/svg">
<g clip-path="url(#clip0_11_139)">
<path d="M14.0001 25.6667C15.2834 25.6667 16.3334 24.6167 16.3334 23.3333H11.6667C11.6667 24.6167 12.7167 25.6667 14.0001 25.6667ZM21.0001 20.4167V12.8333C21.0001 9.25166 19.0984 6.25332 15.7501 5.45999V4.66666C15.7501 3.69832 14.9684 2.91666 14.0001 2.91666C13.0317 2.91666 12.2501 3.69832 12.2501 4.66666V5.45999C8.91341 6.25332 7.00008 9.23999 7.00008 12.8333V20.4167L4.66675 21V22.1667H23.3334V21L21.0001 20.4167ZM19.8334 21H8.16675V12.8333C8.16675 9.91666 9.91675 5.83332 14.0001 6.41666C18.0834 5.83332 19.8334 9.93999 19.8334 12.8333V21Z" fill="black"/>
<path d="M20.8333 15.1667C24.3311 15.1667 27.1667 12.3311 27.1667 8.83333C27.1667 5.33553 24.3311 2.5 20.8333 2.5C17.3355 2.5 14.5 5.33553 14.5 8.83333C14.5 12.3311 17.3355 15.1667 20.8333 15.1667Z" fill="#FF0000" stroke="white"/>
<path d="M21.3467 11H20.5V7.73633L19.4893 8.0498V7.36133L21.2559 6.72852H21.3467V11Z" fill="white"/>
</g>
<defs>
<clipPath id="clip0_11_139">
<rect width="28" height="28" fill="white"/>
</clipPath>
</defs>
</svg>
