<svg width="20" height="24" viewBox="0 0 20 24" fill="none" xmlns="http://www.w3.org/2000/svg">
<path d="M10.0001 23.6667C11.2834 23.6667 12.3334 22.6167 12.3334 21.3333H7.66675C7.66675 22.6167 8.71675 23.6667 10.0001 23.6667ZM17.0001 18.4167V10.8333C17.0001 7.25166 15.0984 4.25332 11.7501 3.45999V2.66666C11.7501 1.69832 10.9684 0.916656 10.0001 0.916656C9.03175 0.916656 8.25008 1.69832 8.25008 2.66666V3.45999C4.91341 4.25332 3.00008 7.23999 3.00008 10.8333V18.4167L0.666748 19V20.1667H19.3334V19L17.0001 18.4167ZM15.8334 19H4.16675V10.8333C4.16675 7.91666 5.91675 3.83332 10.0001 4.41666C14.0834 3.83332 15.8334 7.93999 15.8334 10.8333V19Z" fill="black"/>
</svg>
