<svg width="20" height="24" viewBox="0 0 20 24" fill="none" xmlns="http://www.w3.org/2000/svg">
<path d="M10.0001 23.6666C11.2834 23.6666 12.3334 22.6166 12.3334 21.3333H7.66675C7.66675 22.6166 8.71675 23.6666 10.0001 23.6666ZM17.0001 18.4166V10.8333C17.0001 7.25163 15.0984 4.25329 11.7501 3.45996V2.66663C11.7501 1.69829 10.9684 0.916626 10.0001 0.916626C9.03175 0.916626 8.25008 1.69829 8.25008 2.66663V3.45996C4.91341 4.25329 3.00008 7.23996 3.00008 10.8333V18.4166L0.666748 19V20.1666H19.3334V19L17.0001 18.4166ZM15.8334 19H4.16675V10.8333C4.16675 7.91663 5.91675 3.83329 10.0001 4.41663C14.0834 3.83329 15.8334 7.93996 15.8334 10.8333V19Z" fill="white"/>
</svg>
