<svg width="24" height="24" viewBox="0 0 24 24" fill="none" xmlns="http://www.w3.org/2000/svg">
<path d="M22.065 6.05659C22.2908 6.89944 22.3955 8.4099 22.4473 9.65726C22.4737 10.292 22.4868 10.8771 22.4934 11.3032C22.4967 11.5164 22.4983 11.6901 22.4992 11.8107L22.4999 11.9502L22.5 11.987L22.5 11.9965L22.5 11.999V11.9997V11.9999L22 12L22.5 12.0001V12.0003V12.001L22.5 12.0035L22.5 12.013L22.4999 12.0498L22.4992 12.1893C22.4983 12.3099 22.4967 12.4836 22.4934 12.6968C22.4868 13.1229 22.4737 13.708 22.4473 14.3427C22.3955 15.59 22.2908 17.1003 22.065 17.9432L22.065 6.05659ZM22.065 6.05659C21.7887 5.02404 20.976 4.21127 19.9434 3.93504L22.065 6.05659ZM19.9434 20.065C19.5014 20.1834 18.7732 20.2638 17.9713 20.3223C17.1554 20.3819 16.2194 20.4213 15.3368 20.4475C14.4535 20.4738 13.6197 20.4869 13.0069 20.4934C12.7004 20.4967 12.449 20.4984 12.2741 20.4992L12.0717 20.4999L12.0185 20.5L12.0048 20.5L12.0013 20.5H12.0004H12.0001C12 20.5 12 20.5 12 20C12 20.5 12 20.5 11.9999 20.5H11.9996H11.9987L11.9952 20.5L11.9815 20.5L11.9283 20.4999L11.7259 20.4992C11.551 20.4984 11.2996 20.4967 10.9931 20.4934C10.3803 20.4869 9.54651 20.4738 8.66315 20.4475C7.78059 20.4213 6.84457 20.3819 6.02868 20.3223C5.22684 20.2638 4.49855 20.1834 4.05659 20.065C3.02404 19.7887 2.21127 18.976 1.93504 17.9434C1.7092 17.1006 1.60447 15.5901 1.55268 14.3427C1.52633 13.708 1.51317 13.1229 1.50659 12.6968C1.5033 12.4836 1.50165 12.3099 1.50083 12.1893L1.5001 12.0498L1.50001 12.013L1.5 12.0035L1.5 12.001L1.5 12.0003L1.5 12.0001L2 12L1.5 11.9999L1.5 11.9997L1.5 11.999L1.5 11.9965L1.50001 11.987L1.5001 11.9502L1.50083 11.8107C1.50165 11.6901 1.5033 11.5164 1.50659 11.3032C1.51317 10.8771 1.52633 10.292 1.55268 9.65726C1.60446 8.41001 1.70918 6.89971 1.93498 6.05682L19.9434 20.065ZM19.9434 20.065C20.9772 19.7887 21.7888 18.9757 22.065 17.9434L19.9434 20.065ZM19.9432 3.93498C19.5012 3.81659 18.773 3.73616 17.9713 3.67767C17.1554 3.61814 16.2194 3.57869 15.3368 3.55247C14.4535 3.52622 13.6197 3.51311 13.0069 3.50656C12.7004 3.50328 12.449 3.50164 12.2741 3.50082L12.0717 3.5001L12.0185 3.50001L12.0048 3.5L12.0013 3.5L12.0004 3.5L12.0001 3.5C12 3.5 12 3.5 12 4C12 3.5 12 3.5 11.9999 3.5L11.9996 3.5L11.9987 3.5L11.9952 3.5L11.9815 3.50001L11.9283 3.5001L11.7259 3.50082C11.551 3.50164 11.2996 3.50328 10.9931 3.50656C10.3803 3.51311 9.54651 3.52622 8.66315 3.55247C7.78059 3.57869 6.84457 3.61814 6.02868 3.67767C5.22698 3.73616 4.4988 3.81659 4.05682 3.93498L19.9432 3.93498ZM4.05659 3.93504C3.02404 4.21127 2.21127 5.02404 1.93504 6.05659L4.05659 3.93504Z" stroke="black"/>
<path d="M9 7V17.1818L17 12.0909L9 7Z" fill="black"/>
</svg>
