<svg width="20" height="20" viewBox="0 0 20 20" fill="none" xmlns="http://www.w3.org/2000/svg">
<path fill-rule="evenodd" clip-rule="evenodd" d="M13.8451 13.3561L14.4284 13.9167L19.6667 19.1667L19.0951 19.75L13.8451 14.5L13.2617 13.9167L12.9467 13.835C11.6167 14.9783 9.89008 15.6667 8.01174 15.6667C3.82341 15.6667 0.428411 12.2717 0.428411 8.08333C0.428411 3.895 3.82341 0.5 8.01174 0.5C12.2001 0.5 15.5951 3.895 15.5951 8.08333C15.5951 9.96167 14.9067 11.6883 13.7634 13.0183L13.8451 13.3561ZM1.59508 8.08333C1.59508 4.53951 4.46792 1.66667 8.01174 1.66667C11.5556 1.66667 14.4284 4.53951 14.4284 8.08333C14.4284 11.6272 11.5556 14.5 8.01174 14.5C4.46792 14.5 1.59508 11.6272 1.59508 8.08333Z" fill="white"/>
</svg>
