<svg width="28" height="28" viewBox="0 0 28 28" fill="none" xmlns="http://www.w3.org/2000/svg">
<g clip-path="url(#clip0_11_136)">
<path fill-rule="evenodd" clip-rule="evenodd" d="M16.8451 16.3561L17.4284 16.9167L22.6667 22.1667L22.0951 22.75L16.8451 17.5L16.2617 16.9167L15.9467 16.835C14.6167 17.9783 12.8901 18.6667 11.0117 18.6667C6.82341 18.6667 3.42841 15.2717 3.42841 11.0833C3.42841 6.895 6.82341 3.5 11.0117 3.5C15.2001 3.5 18.5951 6.895 18.5951 11.0833C18.5951 12.9617 17.9067 14.6883 16.7634 16.0183L16.8451 16.3561ZM4.59508 11.0833C4.59508 7.53951 7.46792 4.66667 11.0117 4.66667C14.5556 4.66667 17.4284 7.53951 17.4284 11.0833C17.4284 14.6272 14.5556 17.5 11.0117 17.5C7.46792 17.5 4.59508 14.6272 4.59508 11.0833Z" fill="black"/>
</g>
<defs>
<clipPath id="clip0_11_136">
<rect width="28" height="28" fill="white"/>
</clipPath>
</defs>
</svg>
