<svg width="24" height="24" viewBox="0 0 24 24" fill="none" xmlns="http://www.w3.org/2000/svg">
<g clip-path="url(#clip0_119_779)">
<path d="M18.6437 12.8765L18.6103 13.1546L18.8301 13.3283L20.82 14.9012L18.9161 18.1974L16.5546 17.2481L16.2922 17.1426L16.0666 17.3132C15.6032 17.6635 15.1007 17.9641 14.5592 18.1851L14.2933 18.2936L14.253 18.578L13.8961 21.1H10.0921L9.73517 18.578L9.69494 18.2936L9.42906 18.1851C8.88605 17.9635 8.396 17.6746 7.92313 17.3143L7.69717 17.1422L7.43361 17.2481L5.07216 18.1974L3.16825 14.9013L5.17988 13.3301L5.41245 13.1484L5.36583 12.857C5.32235 12.5853 5.30011 12.2878 5.30011 12C5.30011 11.7239 5.33219 11.4282 5.37783 11.143L5.42445 10.8516L5.19188 10.67L3.18025 9.09876L5.08416 5.80261L7.44561 6.75194L7.70804 6.85744L7.93366 6.68685C8.39699 6.33653 8.89955 6.03597 9.44106 5.81495L9.70694 5.70643L9.74717 5.42208L10.1041 2.90002H13.9081L14.265 5.42208L14.3053 5.70643L14.5712 5.81495C15.1142 6.03658 15.6042 6.32546 16.0771 6.68574L16.303 6.8579L16.5666 6.75194L18.9281 5.80261L20.832 9.09876L18.8203 10.67L18.5878 10.8516L18.6344 11.143C18.6779 11.4152 18.7001 11.7007 18.7001 12C18.7001 12.2994 18.6779 12.5909 18.6437 12.8765Z" stroke="white"/>
</g>
<defs>
<clipPath id="clip0_119_779">
<rect width="24" height="24" fill="white"/>
</clipPath>
</defs>
</svg>
