<svg width="24" height="24" viewBox="0 0 24 24" fill="none" xmlns="http://www.w3.org/2000/svg">
<g clip-path="url(#clip0_54_532)">
<path d="M3.5 11V5.32494L12 1.54716L20.5 5.32494V11C20.5 16.2973 16.8574 21.2335 12 22.4845C7.14261 21.2335 3.5 16.2973 3.5 11Z" stroke="black"/>
<path d="M12.198 8.38702C12.9227 8.38702 13.5099 8.97429 13.5099 9.699C13.5099 10.4237 12.9227 11.011 12.198 11.011C11.4732 11.011 10.886 10.4237 10.886 9.699C10.886 8.97429 11.4732 8.38702 12.198 8.38702ZM12.198 14.0098C14.0535 14.0098 16.0089 14.9219 16.0089 15.3217V16.009H8.38698V15.3217C8.38698 14.9219 10.3424 14.0098 12.198 14.0098ZM12.198 7.2C10.8173 7.2 9.69895 8.3183 9.69895 9.699C9.69895 11.0797 10.8173 12.198 12.198 12.198C13.5786 12.198 14.6969 11.0797 14.6969 9.699C14.6969 8.3183 13.5786 7.2 12.198 7.2ZM12.198 12.8227C10.5299 12.8227 7.19995 13.6599 7.19995 15.3217V17.196H17.1959V15.3217C17.1959 13.6599 13.866 12.8227 12.198 12.8227Z" fill="black"/>
</g>
<defs>
<clipPath id="clip0_54_532">
<rect width="24" height="24" fill="white"/>
</clipPath>
</defs>
</svg>
