<svg width="24" height="24" viewBox="0 0 24 24" fill="none" xmlns="http://www.w3.org/2000/svg">
<g clip-path="url(#clip0_119_757)">
<path d="M3.99993 6H2.99993L2.99993 20C2.99993 21.1 2.89993 21 3.99993 21H17.9999V20H3.99993V6Z" fill="white"/>
<path fill-rule="evenodd" clip-rule="evenodd" d="M21.9999 2H5.99993V18H21.9999V2ZM6.99993 17V3H20.9999V17H6.99993Z" fill="white"/>
<path d="M14.198 6.38698C14.9227 6.38698 15.5099 6.97424 15.5099 7.69895C15.5099 8.42366 14.9227 9.01093 14.198 9.01093C13.4732 9.01093 12.886 8.42366 12.886 7.69895C12.886 6.97424 13.4732 6.38698 14.198 6.38698ZM14.198 12.0097C16.0535 12.0097 18.0089 12.9219 18.0089 13.3217V14.0089H10.387V13.3217C10.387 12.9219 12.3424 12.0097 14.198 12.0097ZM14.198 5.19995C12.8173 5.19995 11.699 6.31825 11.699 7.69895C11.699 9.07965 12.8173 10.198 14.198 10.198C15.5786 10.198 16.6969 9.07965 16.6969 7.69895C16.6969 6.31825 15.5786 5.19995 14.198 5.19995ZM14.198 10.8227C12.5299 10.8227 9.19995 11.6599 9.19995 13.3217V15.1959H19.1959V13.3217C19.1959 11.6599 15.866 10.8227 14.198 10.8227Z" fill="white"/>
</g>
<defs>
<clipPath id="clip0_119_757">
<rect width="24" height="24" fill="white"/>
</clipPath>
</defs>
</svg>
