<svg width="20" height="25" viewBox="0 0 20 25" fill="none" xmlns="http://www.w3.org/2000/svg">
<g clip-path="url(#clip0_11_115)">
<path fill-rule="evenodd" clip-rule="evenodd" d="M12.8339 0.547847C15.1767 -0.673095 18.0775 0.216333 19.3105 2.53491C20.5436 4.85349 19.6441 7.72189 17.3012 8.94283L15.3748 9.95557C17.0344 10.0162 18.6172 10.9279 19.446 12.4864C20.679 14.805 19.7815 17.6734 17.4367 18.8943L7.16378 24.2915C4.82094 25.5125 1.9202 24.623 0.687125 22.3045C-0.545946 19.9859 0.353589 17.1175 2.69642 15.8965L4.62284 14.8838C2.96325 14.8232 1.38047 13.9115 0.551689 12.353C-0.681382 10.0344 0.218153 7.166 2.56099 5.94506L12.8339 0.547847ZM7.28911 8.59717L13.507 12.4359L7.28911 16.2564V8.59717Z" fill="#F40407"/>
</g>
<defs>
<clipPath id="clip0_11_115">
<rect width="20" height="24.8393" fill="white"/>
</clipPath>
</defs>
</svg>
